HIERARCHY
ROOT Hips
{
	OFFSET 0.00000 0.00000 0.00000
	CHANNELS 6 Xposition Yposition Zposition Zrotation Yrotation Xrotation 
	JOINT LHipJoint
	{
		OFFSET 0 0 0
		CHANNELS 3 Zrotation Yrotation Xrotation
		JOINT LeftHip
		{
			OFFSET 1.57093 -1.69714 0.87455
			CHANNELS 3 Zrotation Yrotation Xrotation
			JOINT LeftKnee
			{
				OFFSET 2.48056 -6.81529 0.00000
				CHANNELS 3 Zrotation Yrotation Xrotation
				JOINT LeftAnkle
				{
					OFFSET 2.62558 -7.21374 0.00000
					CHANNELS 3 Zrotation Yrotation Xrotation
					JOINT LeftToe
					{
						OFFSET 0.17911 -0.49210 2.16707
						CHANNELS 3 Zrotation Yrotation Xrotation
						End Site
						{
							OFFSET 0.00000 -0.00000 1.11848
						}
					}
				}
			}
		}
	}
	JOINT RHipJoint
	{
		OFFSET 0 0 0
		CHANNELS 3 Zrotation Yrotation Xrotation
		JOINT RightHip
		{
			OFFSET -1.69739 -1.69715 0.87455
			CHANNELS 3 Zrotation Yrotation Xrotation
			JOINT RightKnee
			{
				OFFSET -2.33658 -6.41972 0.00000
				CHANNELS 3 Zrotation Yrotation Xrotation
				JOINT RightAnkle
				{
					OFFSET -2.60856 -7.16696 0.00000
					CHANNELS 3 Zrotation Yrotation Xrotation
					JOINT RightToe
					{
						OFFSET -0.20854 -0.57296 2.11053
						CHANNELS 3 Zrotation Yrotation Xrotation
						End Site
						{
							OFFSET -0.00000 -0.00000 1.09848
						}
					}
				}
			}
		}
	}
	JOINT lowerback
	{
		OFFSET 0 0 0
		CHANNELS 3 Zrotation Yrotation Xrotation
		JOINT Chest
		{
			OFFSET 0.02563 2.15732 -0.03270
			CHANNELS 3 Zrotation Yrotation Xrotation
			JOINT Chest2
			{
				OFFSET 0.00281 2.14662 0.09285
				CHANNELS 3 Zrotation Yrotation Xrotation
				JOINT lowerneck
				{
					OFFSET 0 0 0
					CHANNELS 3 Zrotation Yrotation Xrotation
					JOINT Neck
					{
						OFFSET -0.04440 1.68397 0.17601
						CHANNELS 3 Zrotation Yrotation Xrotation
						JOINT Head
						{
							OFFSET 0.06040 1.66995 -0.35615
							CHANNELS 3 Zrotation Yrotation Xrotation
							End Site
							{
								OFFSET 0.02405 1.72189 -0.14044
							}
						}
					}
				}
				JOINT LeftCollar
				{
					OFFSET 0 0 0
					CHANNELS 3 Zrotation Yrotation Xrotation
					JOINT LeftShoulder
					{
						OFFSET 2.98955 1.90907 -0.21660
CHANNELS 3 Zrotation Xrotation Yrotation
						JOINT LeftElbow
						{
OFFSET 0 -4.913770 0.000000
CHANNELS 3 Zrotation Xrotation Yrotation
							JOINT LeftWrist
							{
OFFSET 0 -3.002910 -0.000000
CHANNELS 3 Zrotation Xrotation Yrotation
								JOINT lhand
								{
									OFFSET 0 0 0
CHANNELS 3 Zrotation Xrotation Yrotation
									JOINT LFingers
									{
OFFSET 0 -0.450920 -0.000000
CHANNELS 3 Zrotation Xrotation Yrotation
										End Site
										{
OFFSET 0 -0.363550 -0.000000
										}
									}
								}
								JOINT LThumb
								{
OFFSET 0 0.000000 0.000000
CHANNELS 3 Zrotation Xrotation Yrotation
									End Site
									{
OFFSET 0 -0.369100 0.369100
									}
								}
							}
						}
					}
				}
				JOINT RightCollar
				{
					OFFSET 0 0 0
					CHANNELS 3 Zrotation Yrotation Xrotation
					JOINT RightShoulder
					{
						OFFSET -2.80452 1.90886 -0.21152
CHANNELS 3 Zrotation Xrotation Yrotation
						JOINT RightElbow
						{
OFFSET 0 -4.867250 0.000000
CHANNELS 3 Zrotation Xrotation Yrotation
							JOINT RightWrist
							{
OFFSET 0 -3.171440 -0.000000
CHANNELS 3 Zrotation Xrotation Yrotation
								JOINT rhand
								{
									OFFSET 0 0 0
CHANNELS 3 Zrotation Xrotation Yrotation
									JOINT RFingers
									{
OFFSET 0 -0.419370 -0.000000
CHANNELS 3 Zrotation Xrotation Yrotation
										End Site
										{
OFFSET 0 -0.338100 -0.000000
										}
									}
								}
								JOINT RThumb
								{
OFFSET 0 0.000000 0.000000
CHANNELS 3 Zrotation Xrotation Yrotation
									End Site
									{
OFFSET 0 -0.343270 0.343270
									}
								}
							}
						}
					}
				}
			}
		}
	}
}
MOTION
Frames: 4
Frame Time: 0.008333333333333333
2.397500 14.969200 7.581700 2.144200 -17.484200 104.329000 0.000000 0.000000 0.000000 -19.936000 -11.688400 -54.433000 8.322700 16.351600 53.717000 0.043400 -5.030800 8.460200 3.929800 -12.066400 -35.967100 0.000000 0.000000 0.000000 16.969700 14.631300 -55.067200 -8.577900 -16.528300 54.618600 -1.045000 -5.135400 18.290300 -1.847100 -8.540000 24.366700 15.619500 6.355900 -19.236900 -13.243700 6.573500 -4.127300 -22.370100 4.250200 9.826700 -2.122600 2.642700 -16.424100 15.707600 -1.595700 38.953500 7.312300 1.028600 17.225600 0.000000 -0.000000 0.000000 197.008600 -27.172000 77.153100 6.655600 -11.351100 0.662200 14.993000 5.492600 5.570700 0.000000 0.000000 0.000000 -7.125000 0.000000 0.000000 -8.693600 24.219300 -4.410800 0.000000 -0.000000 0.000000 -159.322300 -19.795000 -60.055800 -13.544700 -22.080000 -2.654500 -33.731300 30.701300 20.734100 0.000000 0.000000 0.000000 7.125000 0.000000 -0.000000 -5.538700 54.368900 1.278100
2.180329 14.992990 7.561303 2.124995 -17.441162 103.601187 0.000000 0.000000 0.000000 -20.805774 -9.779994 -56.187360 9.748028 17.265143 58.642115 0.244084 -4.584918 12.156304 1.678493 -8.145864 -23.166725 0.000000 0.000000 0.000000 16.024252 15.086800 -57.704530 -10.424558 -17.641099 60.897242 -1.224670 -5.737109 19.807137 -2.310951 -9.485471 27.326302 13.990620 7.013913 -19.121771 -12.822391 7.826278 -3.663167 -20.225754 4.895309 10.590028 0.571416 -1.650606 -16.790140 12.803949 -8.245241 42.896019 4.670366 -1.424610 20.699876 0.000000 0.000000 0.000000 200.878990 -21.769895 99.152358 9.368394 -15.745494 1.298334 34.851319 -16.019687 5.382194 0.000000 0.000000 0.000000 -7.125000 0.000000 0.000000 6.026554 23.435743 3.152574 0.000000 0.000000 0.000000 -164.051946 -21.152503 -78.223716 -13.304988 -21.732514 -2.565128 -14.975760 13.504394 20.569539 0.000000 0.000000 0.000000 7.125000 0.000000 0.000000 13.569131 50.711813 -1.940679
1.963457 15.028257 7.565329 2.209567 -17.207309 103.101638 0.000000 0.000000 0.000000 -21.361685 -8.414392 -57.716977 10.855746 17.863464 62.311806 0.502301 -3.314069 15.007724 0.171855 -2.561840 -7.066649 0.000000 0.000000 0.000000 15.285173 15.663962 -59.324580 -11.474578 -18.159502 64.313250 -1.469179 -6.186005 21.727811 -2.421702 -9.694146 27.991932 14.462661 6.884307 -18.620914 -12.566847 7.580095 -3.499288 -20.340184 4.777083 10.402683 0.482884 -2.157925 -17.294496 12.303403 -8.945709 43.666092 4.372726 -1.734901 21.787897 0.000000 0.000000 0.000000 200.578189 -21.277915 97.852245 9.098386 -15.317130 1.225962 35.627448 -16.819966 5.875854 0.000000 0.000000 0.000000 -7.125000 0.000000 0.000000 6.541265 22.776934 3.521020 0.000000 0.000000 0.000000 -164.539870 -21.213763 -78.769093 -13.293116 -21.715143 -2.560726 -15.153144 13.217991 20.471181 0.000000 0.000000 0.000000 7.125000 0.000000 0.000000 13.359889 50.642751 -1.886779
1.750681 15.059280 7.597592 2.081297 -17.131811 102.909556 0.000000 0.000000 0.000000 -21.913906 -7.708345 -58.572692 11.186752 18.025210 63.386428 0.805432 -1.108062 17.389251 0.324831 3.607711 9.981345 0.000000 0.000000 0.000000 14.519409 16.535966 -59.281353 -11.305850 -18.081238 63.770528 -1.755791 -5.697029 23.872363 -2.387557 -9.630198 27.787595 14.931295 6.768370 -18.290202 -12.386190 7.344313 -3.380182 -20.528717 4.668474 10.272545 0.302083 -2.004925 -17.404053 12.205280 -8.658801 43.926066 4.454324 -1.673513 21.998729 0.000000 0.000000 0.000000 200.113097 -21.349009 97.064949 9.037500 -15.220124 1.209950 34.649071 -17.503073 6.192567 0.000000 0.000000 0.000000 -7.125000 0.000000 0.000000 5.796125 22.478105 3.155365 0.000000 0.000000 0.000000 -165.067987 -21.500069 -79.556273 -13.271569 -21.683872 -2.552758 -15.279149 13.613137 20.719849 0.000000 0.000000 0.000000 7.125000 0.000000 0.000000 13.335899 50.909784 -1.971872
